Flexion_states
version=1
nRows=8
nColumns=41
inDegrees=yes

# SIMM Motion File Header:
name Flexion_states
datacolumns 41
datarows 8
otherdata 1
range 0.00000000 1.05437858
endheader
time	/jointset/ground_thorax/thorax_tilt/value	/jointset/ground_thorax/thorax_tilt/speed	/jointset/ground_thorax/thorax_list/value	/jointset/ground_thorax/thorax_list/speed	/jointset/ground_thorax/thorax_rotation/value	/jointset/ground_thorax/thorax_rotation/speed	/jointset/ground_thorax/thorax_tx/value	/jointset/ground_thorax/thorax_tx/speed	/jointset/ground_thorax/thorax_ty/value	/jointset/ground_thorax/thorax_ty/speed	/jointset/ground_thorax/thorax_tz/value	/jointset/ground_thorax/thorax_tz/speed	/jointset/sternoclavicular/sternoclavicular_r2/value	/jointset/sternoclavicular/sternoclavicular_r2/speed	/jointset/sternoclavicular/sternoclavicular_r3/value	/jointset/sternoclavicular/sternoclavicular_r3/speed	/jointset/unrotscap/unrotscap_r3/value	/jointset/unrotscap/unrotscap_r3/speed	/jointset/unrotscap/unrotscap_r2/value	/jointset/unrotscap/unrotscap_r2/speed	/jointset/acromioclavicular/acromioclavicular_r2/value	/jointset/acromioclavicular/acromioclavicular_r2/speed	/jointset/acromioclavicular/acromioclavicular_r3/value	/jointset/acromioclavicular/acromioclavicular_r3/speed	/jointset/acromioclavicular/acromioclavicular_r1/value	/jointset/acromioclavicular/acromioclavicular_r1/speed	/jointset/unrothum/unrothum_r1/value	/jointset/unrothum/unrothum_r1/speed	/jointset/unrothum/unrothum_r3/value	/jointset/unrothum/unrothum_r3/speed	/jointset/unrothum/unrothum_r2/value	/jointset/unrothum/unrothum_r2/speed	/jointset/shoulder0/elv_angle/value	/jointset/shoulder0/elv_angle/speed	/jointset/shoulder1/shoulder_elv/value	/jointset/shoulder1/shoulder_elv/speed	/jointset/shoulder1/shoulder1_r2/value	/jointset/shoulder1/shoulder1_r2/speed	/jointset/shoulder2/shoulder_rot/value	/jointset/shoulder2/shoulder_rot/speed
      0.00000000	      0.00000000	      0.00000000	      0.00000000	      0.00000000	      0.00000000	      0.00000000	      0.00000000	      0.00000000	      0.00000000	      0.00000000	      0.00000000	      0.00000000	      0.00000000	      0.00000000	     -0.00000000	      0.00000000	      0.00000000	      0.00000000	     -0.00000000	      0.00000000	      0.00000000	      0.00000000	     -0.00000000	      0.00000000	     -0.00000000	      0.00000000	      0.00000000	      0.00000000	      0.00000000	      0.00000000	     -0.00000000	      0.00000000	     90.00000000	      0.00000000	     -0.00000000	      0.00000000	    -90.00000000	      0.00000000	      0.00000000	      0.00000000
      0.01000000	      0.00000000	      0.00000000	     -0.00000000	     -0.00000000	      0.00000000	      0.00000000	      0.00000000	      0.00000000	     -0.00000000	      0.00000000	     -0.00000000	     -0.00000000	     -0.00065555	     -0.13108835	      0.00027766	      0.05552279	     -0.00027766	     -0.05552279	      0.00065555	      0.13108835	     -0.00013273	     -0.02654252	      0.00107269	      0.21450445	      0.00048218	      0.09642044	     -0.00048218	     -0.09642044	     -0.00107269	     -0.21450445	      0.00013273	      0.02654252	     90.00000000	      0.00000000	      0.00270889	      0.54169253	    -90.00000000	     -0.00000000	     -0.00000000	     -0.00000000
      0.06000000	      0.00000000	      0.00000000	     -0.00000000	      0.00000000	     -0.00000000	     -0.00000000	      0.00000000	      0.00000000	     -0.00000000	     -0.00000000	     -0.00000000	     -0.00000000	     -0.02356236	     -0.78466609	      0.00997990	      0.33234726	     -0.00997990	     -0.33234726	      0.02356236	      0.78466609	     -0.00477086	     -0.15887770	      0.03855592	      1.28397654	      0.01733101	      0.57715160	     -0.01733101	     -0.57715160	     -0.03855592	     -1.28397654	      0.00477086	      0.15887770	     90.00000000	      0.00000000	      0.09736606	      3.24245257	    -90.00000000	     -0.00000000	     -0.00000000	     -0.00000000
      0.31000000	      0.00000000	      0.00000000	      0.00000000	      0.00000000	     -0.00000000	     -0.00000000	      0.00000000	      0.00000000	     -0.00000000	     -0.00000000	     -0.00000000	     -0.00000000	     -0.62397942	     -4.00553742	      0.26428802	      1.69655526	     -0.26428802	     -1.69655526	      0.62397942	      4.00553742	     -0.12634217	     -0.81103361	      1.02103932	      6.55440083	      0.45896047	      2.94622435	     -0.45896047	     -2.94622435	     -1.02103932	     -6.55440083	      0.12634217	      0.81103361	     90.00000000	     -0.00000000	      2.57845176	     16.55196428	    -90.00000000	      0.00000000	      0.00000000	      0.00000000
      0.72088110	     -0.00000000	     -0.00000000	      0.00000000	      0.00000000	     -0.00000000	     -0.00000000	      0.00000000	      0.00000000	     -0.00000000	     -0.00000000	     -0.00000000	     -0.00000000	     -3.32892840	     -9.12371798	      1.40997584	      3.86437328	     -1.40997584	     -3.86437328	      3.32892840	      9.12371798	     -0.67403510	     -1.84735308	      5.44724184	     14.92945850	      2.44855281	      6.71083984	     -2.44855281	     -6.71083984	     -5.44724184	    -14.92945850	      0.67403510	      1.84735308	     90.00000000	      0.00000000	     13.75603274	     37.70167103	    -90.00000000	     -0.00000000	      0.00000000	     -0.00000000
      0.84632305	     -0.00000000	     -0.00000000	      0.00000000	      0.00000000	     -0.00000000	     -0.00000000	      0.00000000	      0.00000000	     -0.00000000	     -0.00000000	     -0.00000000	     -0.00000000	     -4.56879627	    -10.64056567	      1.93512494	      4.50683786	     -1.93512494	     -4.50683786	      4.56879627	     10.64056567	     -0.92508119	     -2.15448152	      7.47608096	     17.41152936	      3.36052255	      7.82653871	     -3.36052255	     -7.82653871	     -7.47608096	    -17.41152936	      0.92508119	      2.15448152	     90.00000000	      0.00000000	     18.87950222	     43.96969603	    -90.00000000	     -0.00000000	      0.00000000	      0.00000000
      0.95568505	     -0.00000000	     -0.00000000	      0.00000000	      0.00000000	     -0.00000000	     -0.00000000	      0.00000000	      0.00000000	     -0.00000000	     -0.00000000	     -0.00000000	     -0.00000000	     -5.80392938	    -11.94447868	      2.45826862	      5.05911343	     -2.45826862	     -5.05911343	      5.80392938	     11.94447868	     -1.17516859	     -2.41849534	      9.49717242	     19.54516777	      4.26900969	      8.78561607	     -4.26900969	     -8.78561607	     -9.49717242	    -19.54516777	      1.17516859	      2.41849534	     90.00000000	      0.00000000	     23.98340638	     49.35781734	    -90.00000000	     -0.00000000	      0.00000000	     -0.00000000
      1.05437858	     -0.00000000	     -0.00000000	      0.00000000	      0.00000000	     -0.00000000	     -0.00000000	      0.00000000	      0.00000000	     -0.00000000	     -0.00000000	     -0.00000000	     -0.00000000	     -7.04019984	    -13.10568877	      2.98189402	      5.55094683	     -2.98189402	     -5.55094683	      7.04019984	     13.10568877	     -1.42548628	     -2.65361496	     11.52012496	     21.44529642	      5.17833340	      9.63973004	     -5.17833340	     -9.63973004	    -11.52012496	    -21.44529642	      1.42548628	      2.65361496	     90.00000000	      0.00000000	     29.09201037	     54.15625159	    -90.00000000	      0.00000000	      0.00000000	     -0.00000000
